<svg xmlns="http://www.w3.org/2000/svg" viewBox="0 0 838.23 286.54"><defs><style>.cls-1{fill:#fff;}</style></defs><g id="Capa_2" data-name="Capa 2"><g id="Capa_5" data-name="Capa 5"><rect class="cls-1" x="126.48" width="43.91" height="279.41" rx="11.99"/><path class="cls-1" d="M332.75,0H306.06a8.48,8.48,0,0,0-8.48,8.48l-.15,148.23L263.27,7.39A10.19,10.19,0,0,0,253.48,0H208.16a8.48,8.48,0,0,0-8.48,8.48V270.94a8.47,8.47,0,0,0,8.48,8.47h27.11a8.47,8.47,0,0,0,8.47-8.47l-.05-168.27,42.19,169.44a10.19,10.19,0,0,0,9.77,7.3h37.1a8.48,8.48,0,0,0,8.48-8.47V8.48A8.48,8.48,0,0,0,332.75,0Z"/><path class="cls-1" d="M442.21,0h-7.39a5.59,5.59,0,0,0-5.59,5.59V34.32a5.6,5.6,0,0,0,5.59,5.6h6.6c14,0,22.35,7.18,22.35,27.14v145.3c0,19.95-8.38,27.14-22.35,27.14H422.26a5.6,5.6,0,0,1-5.59-5.59v-194h0V5.59A5.59,5.59,0,0,0,411.09,0H378.36a5.59,5.59,0,0,0-5.59,5.59V273.82a5.59,5.59,0,0,0,5.59,5.59h63.85c43.91,0,65.47-24.35,65.47-69.05V69.06C507.68,24.35,486.12,0,442.21,0Z"/><path class="cls-1" d="M633.72,6.84a8.12,8.12,0,0,0-8-6.84H575.28a8.12,8.12,0,0,0-8,6.84L525.16,270a8.12,8.12,0,0,0,8,9.4H573a8.12,8.12,0,0,0,8.1-7.5L598.33,45a1.64,1.64,0,0,1,3.27,0L614,271.74a8.11,8.11,0,0,0,8.11,7.67h45.72a8.13,8.13,0,0,0,8-9.4Z"/><rect class="cls-1" x="697.18" width="43.91" height="279.41" rx="11.99"/><path class="cls-1" d="M837.51,265.51l-54-136.8a10.18,10.18,0,0,1,.33-8.2L835.81,14.65A10.18,10.18,0,0,0,826.67,0H805.53a10.17,10.17,0,0,0-9.2,5.83l-35.89,76a64.87,64.87,0,0,0-6.2,27.67v51.26a64.43,64.43,0,0,0,4.91,24.66l36.23,87.46a10.17,10.17,0,0,0,9.5,6.53H828A10.17,10.17,0,0,0,837.51,265.51Z"/><path class="cls-1" d="M603.18,275.53a1.59,1.59,0,0,1-.29-.81l-4.33-69.8a1,1,0,0,0-2.08,0l-6.25,72.89a1.52,1.52,0,0,0,1,1.56l19.07,7.16a.42.42,0,0,0,.49-.64Z"/><path class="cls-1" d="M100.84.07H36.89C-.07.07,0,35.45,0,35.45V98.93a2.19,2.19,0,0,0,3.62,1.65A47.59,47.59,0,0,1,28.21,89.49c2.66-.36,9.67-.46,13.59-.49A2.16,2.16,0,0,0,44,86.83V48.31A10.92,10.92,0,0,1,54.82,37.39l46-.15a5.68,5.68,0,0,0,5.66-5.68V5.75A5.68,5.68,0,0,0,100.84.07Z"/><path class="cls-1" d="M88.38,101.81,44,101.75c-2.43,0-11.66.06-14.06.39A34.42,34.42,0,0,0,12,110.2,35.3,35.3,0,0,0,1.69,126.28,36.6,36.6,0,0,0,0,137.2V274.25a5.16,5.16,0,0,0,5.16,5.16H38.79A5.16,5.16,0,0,0,44,274.25V150.07a10.92,10.92,0,0,1,10.87-10.92H88.37A5.16,5.16,0,0,0,93.53,134V107A5.17,5.17,0,0,0,88.38,101.81Z"/></g></g></svg>